<mxfile host="65bd71144e">
    <diagram id="4KZTm4Fq73bGfSVH9eQ2" name="Page-1">
        <mxGraphModel dx="1128" dy="694" grid="1" gridSize="10" guides="1" tooltips="1" connect="1" arrows="1" fold="1" page="1" pageScale="1" pageWidth="850" pageHeight="1100" math="0" shadow="0">
            <root>
                <mxCell id="0"/>
                <mxCell id="1" parent="0"/>
                <mxCell id="39" value="vehicule" style="swimlane;fontStyle=1;align=center;verticalAlign=top;childLayout=stackLayout;horizontal=1;startSize=26;horizontalStack=0;resizeParent=1;resizeParentMax=0;resizeLast=0;collapsible=1;marginBottom=0;" parent="1" vertex="1">
                    <mxGeometry x="230" y="60" width="420" height="220" as="geometry"/>
                </mxCell>
                <mxCell id="40" value="+ make: string&#10;+ model: string&#10;+ color: string&#10;+ noOfWheels: number&#10;+ engineNumber: string&#10;&#10;" style="text;strokeColor=none;fillColor=none;align=left;verticalAlign=top;spacingLeft=4;spacingRight=4;overflow=hidden;rotatable=0;points=[[0,0.5],[1,0.5]];portConstraint=eastwest;" parent="39" vertex="1">
                    <mxGeometry y="26" width="420" height="84" as="geometry"/>
                </mxCell>
                <mxCell id="41" value="" style="line;strokeWidth=1;fillColor=none;align=left;verticalAlign=middle;spacingTop=-1;spacingLeft=3;spacingRight=3;rotatable=0;labelPosition=right;points=[];portConstraint=eastwest;" parent="39" vertex="1">
                    <mxGeometry y="110" width="420" height="8" as="geometry"/>
                </mxCell>
                <mxCell id="42" value="+ __construct(make, modal, color, noOfWheels, engineNumber ): void&#10;+ getMake()&#10;+ getModel()&#10;+ getColor()&#10;+ noOfWheels()&#10;+ getEngineNumber()" style="text;strokeColor=none;fillColor=none;align=left;verticalAlign=top;spacingLeft=4;spacingRight=4;overflow=hidden;rotatable=0;points=[[0,0.5],[1,0.5]];portConstraint=eastwest;" parent="39" vertex="1">
                    <mxGeometry y="118" width="420" height="102" as="geometry"/>
                </mxCell>
                <mxCell id="48" value="car" style="swimlane;fontStyle=1;align=center;verticalAlign=top;childLayout=stackLayout;horizontal=1;startSize=26;horizontalStack=0;resizeParent=1;resizeParentMax=0;resizeLast=0;collapsible=1;marginBottom=0;" parent="1" vertex="1">
                    <mxGeometry x="220" y="378" width="160" height="98" as="geometry"/>
                </mxCell>
                <mxCell id="49" value="+ doors = 4&#10;+ passengerCapacity = 5&#10;+ steeringWheels = true&#10;+ transmission = 'manual'&#10;" style="text;strokeColor=none;fillColor=none;align=left;verticalAlign=top;spacingLeft=4;spacingRight=4;overflow=hidden;rotatable=0;points=[[0,0.5],[1,0.5]];portConstraint=eastwest;" parent="48" vertex="1">
                    <mxGeometry y="26" width="160" height="64" as="geometry"/>
                </mxCell>
                <mxCell id="50" value="" style="line;strokeWidth=1;fillColor=none;align=left;verticalAlign=middle;spacingTop=-1;spacingLeft=3;spacingRight=3;rotatable=0;labelPosition=right;points=[];portConstraint=eastwest;" parent="48" vertex="1">
                    <mxGeometry y="90" width="160" height="8" as="geometry"/>
                </mxCell>
                <mxCell id="53" value="motorCycle" style="swimlane;fontStyle=1;align=center;verticalAlign=top;childLayout=stackLayout;horizontal=1;startSize=26;horizontalStack=0;resizeParent=1;resizeParentMax=0;resizeLast=0;collapsible=1;marginBottom=0;" parent="1" vertex="1">
                    <mxGeometry x="490" y="378" width="160" height="88" as="geometry"/>
                </mxCell>
                <mxCell id="54" value="+ noOfwheels = 2&#10;+ stroke = 4&#10;+ type = 'standard'" style="text;strokeColor=none;fillColor=none;align=left;verticalAlign=top;spacingLeft=4;spacingRight=4;overflow=hidden;rotatable=0;points=[[0,0.5],[1,0.5]];portConstraint=eastwest;" parent="53" vertex="1">
                    <mxGeometry y="26" width="160" height="54" as="geometry"/>
                </mxCell>
                <mxCell id="55" value="" style="line;strokeWidth=1;fillColor=none;align=left;verticalAlign=middle;spacingTop=-1;spacingLeft=3;spacingRight=3;rotatable=0;labelPosition=right;points=[];portConstraint=eastwest;" parent="53" vertex="1">
                    <mxGeometry y="80" width="160" height="8" as="geometry"/>
                </mxCell>
                <mxCell id="56" value="" style="endArrow=block;endFill=0;endSize=12;html=1;entryX=0.549;entryY=1.01;entryDx=0;entryDy=0;entryPerimeter=0;exitX=0.5;exitY=0;exitDx=0;exitDy=0;" edge="1" parent="1" source="48">
                    <mxGeometry width="160" relative="1" as="geometry">
                        <mxPoint x="280" y="378" as="sourcePoint"/>
                        <mxPoint x="440.5799999999999" y="281.02" as="targetPoint"/>
                        <Array as="points">
                            <mxPoint x="300" y="320"/>
                            <mxPoint x="330" y="320"/>
                            <mxPoint x="380" y="320"/>
                            <mxPoint x="441" y="320"/>
                            <mxPoint x="441" y="300"/>
                        </Array>
                    </mxGeometry>
                </mxCell>
                <mxCell id="58" value="" style="endArrow=block;endFill=0;endSize=12;html=1;exitX=0.563;exitY=-0.005;exitDx=0;exitDy=0;exitPerimeter=0;" edge="1" parent="1" source="53">
                    <mxGeometry width="160" relative="1" as="geometry">
                        <mxPoint x="580" y="371" as="sourcePoint"/>
                        <mxPoint x="441" y="281" as="targetPoint"/>
                        <Array as="points">
                            <mxPoint x="580" y="320"/>
                            <mxPoint x="530" y="320"/>
                            <mxPoint x="441" y="320"/>
                        </Array>
                    </mxGeometry>
                </mxCell>
            </root>
        </mxGraphModel>
    </diagram>
</mxfile>